<svg width="1440" height="860" viewBox="0 0 1440 860" fill="none" xmlns="http://www.w3.org/2000/svg">
<g opacity="0.16">
<path d="M1108.87 452.906C884.559 408.125 523.767 126.669 523.767 126.669C523.767 126.669 351.29 -22.2715 -7.68587e-06 2.85606L-4.51528e-05 860L1440 860L1440 444.062C1440 444.062 1333.46 497.827 1108.87 452.906Z" fill="#4444FF"/>
<path d="M1108.87 452.906C884.559 408.125 523.767 126.669 523.767 126.669C523.767 126.669 351.29 -22.2715 -7.68587e-06 2.85606L-4.51528e-05 860L1440 860L1440 444.062C1440 444.062 1333.46 497.827 1108.87 452.906Z" fill="url(#paint0_linear_79_14197)"/>
</g>
<defs>
<linearGradient id="paint0_linear_79_14197" x1="2.14186e-05" y1="860" x2="3.5063e-05" y2="-1.30713e-05" gradientUnits="userSpaceOnUse">
<stop stop-color="#05051D"/>
<stop offset="1" stop-color="#05051D" stop-opacity="0"/>
</linearGradient>
</defs>
</svg>
