<svg width="32" height="32" viewBox="0 0 32 32" fill="none" xmlns="http://www.w3.org/2000/svg">
<mask id="mask0_79_14377" style="mask-type:alpha" maskUnits="userSpaceOnUse" x="0" y="0" width="32" height="32">
<rect y="0.707031" width="31.1579" height="31.1579" fill="#000816"/>
</mask>
<g mask="url(#mask0_79_14377)">
<path d="M15.579 2.00537L27.3281 9.0159C27.7175 9.25391 28.0205 9.57847 28.2368 9.98958C28.4532 10.4007 28.5614 10.8334 28.5614 11.2878V25.3738C28.5614 26.0878 28.3074 26.6993 27.7993 27.2082C27.2904 27.7163 26.679 27.9703 25.9649 27.9703H5.19299C4.47895 27.9703 3.86791 27.7163 3.35987 27.2082C2.85095 26.6993 2.5965 26.0878 2.5965 25.3738V11.2878C2.5965 10.8334 2.70468 10.4007 2.92106 9.98958C3.13743 9.57847 3.44036 9.25391 3.82983 9.0159L15.579 2.00537ZM15.579 17.1299L25.7053 11.0931L15.579 5.05625L5.45264 11.0931L15.579 17.1299ZM15.579 20.1808L5.19299 13.9492V25.3738H25.9649V13.9492L15.579 20.1808Z" fill="#000816"/>
</g>
</svg>
