<svg width="32" height="32" viewBox="0 0 32 32" fill="none" xmlns="http://www.w3.org/2000/svg">
<mask id="mask0_79_14372" style="mask-type:alpha" maskUnits="userSpaceOnUse" x="0" y="0" width="32" height="32">
<rect y="0.707031" width="31.1579" height="31.1579" fill="#000816"/>
</mask>
<g mask="url(#mask0_79_14372)">
<path d="M25.9 27.97C23.1088 27.97 20.3881 27.3477 17.7379 26.1031C15.0869 24.8594 12.7392 23.2149 10.6949 21.1698C8.64976 19.1255 7.00531 16.7778 5.76159 14.1268C4.51701 11.4766 3.89471 8.75595 3.89471 5.96472C3.89471 5.57525 4.02454 5.25069 4.28419 4.99104C4.54384 4.73139 4.8684 4.60156 5.25787 4.60156H10.5158C10.8187 4.60156 11.0892 4.69893 11.3272 4.89367C11.5652 5.0884 11.7058 5.33723 11.7491 5.64016L12.593 10.184C12.6362 10.4869 12.631 10.7626 12.5774 11.011C12.5229 11.2603 12.3982 11.4823 12.2035 11.677L9.0877 14.8577C9.99647 16.4156 11.1324 17.8761 12.4956 19.2393C13.8587 20.6024 15.3626 21.7817 17.007 22.777L20.0579 19.7261C20.2526 19.5314 20.5071 19.3851 20.8212 19.2873C21.1346 19.1904 21.4427 19.1636 21.7456 19.2068L26.2245 20.1156C26.5275 20.1805 26.7763 20.3263 26.971 20.5531C27.1658 20.7807 27.2631 21.046 27.2631 21.3489V26.6068C27.2631 26.9963 27.1333 27.3209 26.8737 27.5805C26.614 27.8402 26.2895 27.97 25.9 27.97Z" fill="#000816"/>
</g>
</svg>
