<svg width="178" height="48" viewBox="0 0 178 48" fill="none" xmlns="http://www.w3.org/2000/svg">
<path d="M28.9354 42.954C28.9354 40.0291 27.0969 37.8772 24.4437 37.5638C22.8559 37.3758 21.4143 36.9789 20.3906 35.6209C18.9491 33.6988 19.1998 31.2127 21.0174 29.792C22.835 28.3714 25.7599 28.6638 27.1596 30.4397C27.3476 30.6904 27.5148 30.962 27.7028 31.2127C29.3324 33.5526 32.2573 34.2211 34.639 32.8005C36.9998 31.4007 37.8772 28.3923 36.6028 25.9479C35.8925 24.5272 35.6627 23.1484 36.4357 21.7068C37.2296 20.2026 38.4413 19.3042 40.1753 19.1998C42.6197 19.0326 44.3746 17.8836 45.1894 15.5437C45.9207 13.3291 45.0641 10.9056 43.142 9.63122C41.2826 8.3568 38.7965 8.48216 37.0624 9.9446C35.203 11.4697 34.5554 13.9141 35.5373 16.0869C36.0805 17.2986 36.4357 18.4894 36.0805 19.8265C35.5582 21.8322 34.0331 23.1484 32.1319 23.1901C30.1472 23.2319 28.5594 21.9575 27.9953 19.9519C27.6192 18.6357 27.8908 17.4239 28.434 16.1913C29.6876 13.6216 28.6012 10.5087 26.0315 9.25516C25.6763 9.08803 25.3211 8.96267 24.9451 8.87911C22.8976 8.3568 20.5786 9.10892 19.5131 11.031C17.7373 14.2275 13.3709 13.9977 11.5533 11.0519C10.2998 8.98357 7.87629 8.25234 5.66173 8.98357C2.92488 9.90281 1.46244 12.8695 2.40258 15.6063C2.94577 17.215 4.24108 18.4685 5.89155 18.9491C8.08521 19.6385 10.4669 18.6984 11.6369 16.7136C13.4545 13.6216 17.4866 13.8932 19.2833 16.5465C21.1218 19.2624 18.6984 22.5007 16.2749 23.0021C15.8779 23.0857 15.4601 23.1484 15.0631 23.1901C12.2009 23.4408 10.0908 25.9688 10.3624 28.831C10.5923 31.3589 12.6188 33.3437 15.1467 33.5526C19.0117 33.866 20.7667 36.8744 19.158 40.4052C18.2387 42.4317 18.4059 44.3746 19.8265 46.0878C21.1218 47.6547 22.8559 48.2606 24.8406 47.8427C26.9716 47.3831 28.3087 46.0042 28.831 43.8732C28.8728 43.5181 28.9145 43.2465 28.9354 42.954ZM19.4087 23.6289C19.3878 21.1636 21.3099 19.158 23.6915 19.1371C26.115 19.0953 28.0998 21.0383 28.1415 23.4617C28.1833 25.9897 26.2822 27.9535 23.796 27.9744C21.3934 27.9953 19.4296 26.0732 19.3878 23.6707C19.4087 23.6707 19.4087 23.6498 19.4087 23.6289Z" fill="url(#paint0_linear_79_14199)"/>
<path d="M3.4054 28.6012C5.28615 28.6012 6.8108 27.0765 6.8108 25.1958C6.8108 23.315 5.28615 21.7904 3.4054 21.7904C1.52465 21.7904 0 23.315 0 25.1958C0 27.0765 1.52465 28.6012 3.4054 28.6012Z" fill="url(#paint1_linear_79_14199)"/>
<path d="M35.7671 42.4317C37.6479 42.4317 39.1725 40.907 39.1725 39.0263C39.1725 37.1455 37.6479 35.6209 35.7671 35.6209C33.8864 35.6209 32.3617 37.1455 32.3617 39.0263C32.3617 40.907 33.8864 42.4317 35.7671 42.4317Z" fill="url(#paint2_linear_79_14199)"/>
<path d="M11.3444 42.2854C12.6597 42.2854 13.7261 41.2191 13.7261 39.9038C13.7261 38.5884 12.6597 37.5221 11.3444 37.5221C10.029 37.5221 8.96268 38.5884 8.96268 39.9038C8.96268 41.2191 10.029 42.2854 11.3444 42.2854Z" fill="url(#paint3_linear_79_14199)"/>
<path d="M32.3617 6.8108C34.2425 6.8108 35.7671 5.28615 35.7671 3.4054C35.7671 1.52465 34.2425 0 32.3617 0C30.481 0 28.9563 1.52465 28.9563 3.4054C28.9563 5.28615 30.481 6.8108 32.3617 6.8108Z" fill="url(#paint4_linear_79_14199)"/>
<path d="M154.308 15.8988V11.3026H135.861V32.3617L138.577 36.9789H154.308V32.3826H140.812V26.3866H152.846V21.9157H140.812V15.8988H154.308ZM126.815 11.3026V29.4786L114.342 11.3235H109.474V36.9998H114.238V18.8028L126.794 36.9998H131.599V11.3235L126.815 11.3026ZM157.233 11.3026V15.8988H165.298V36.9998H170.207V15.8988H178V11.3026H157.233ZM105.505 26.9925C105.17 26.2195 104.669 25.53 104.063 24.9451C103.374 24.3392 102.622 23.8587 101.786 23.4826C100.95 23.0857 100.094 22.7305 99.2162 22.4589C98.4641 22.2291 97.5239 21.9784 96.3958 21.7068C94.5155 21.2472 93.1366 20.7876 92.2383 20.3697C91.3608 19.931 90.9221 19.346 90.9221 18.5521C90.9221 17.6538 91.3817 16.9434 92.3009 16.4211C93.2202 15.8988 94.4319 15.6481 95.9153 15.6481C98.8192 15.6481 101.849 16.7345 104.982 18.8864V13.7678C102.329 11.9502 99.1744 10.9683 95.957 10.9892C93.1157 10.9892 90.7549 11.6577 88.8329 12.9739C86.9317 14.2901 85.9707 16.066 85.9707 18.3014C85.9915 21.1218 87.4958 23.211 90.4415 24.6108C91.4026 25.0286 93.3664 25.6554 96.3958 26.4911C98.0045 26.9089 99.2162 27.3476 99.9892 27.8282C100.762 28.3087 101.159 28.9563 101.159 29.792C101.159 30.6904 100.741 31.4007 99.9056 31.9021C99.07 32.4035 97.9 32.6542 96.4167 32.6542C93.1366 32.6542 89.773 31.6096 86.284 29.4995V34.5972C87.9554 35.412 89.6894 36.1014 91.4861 36.6446C93.0739 37.1042 94.7244 37.3131 96.3958 37.3131C99.2162 37.3131 101.514 36.6446 103.353 35.3284C105.17 34.0122 106.09 32.1946 106.09 29.8547C106.111 28.8728 105.902 27.8908 105.505 26.9925ZM69.0272 11.3235L61.8404 30.8993L54.6535 11.3026H49.4096L59.396 36.9789H64.3474L74.292 11.3026H69.0272V11.3235ZM77.5094 36.9998H82.4608V17.4657H77.5094V36.9998ZM82.4608 13.35C82.4608 14.7289 81.3535 15.8361 79.9746 15.8361C78.5958 15.8361 77.4885 14.7289 77.4885 13.35C77.4885 11.9711 78.5958 10.8638 79.9746 10.8638C81.3535 10.8638 82.4608 11.9711 82.4608 13.35Z" fill="url(#paint5_linear_79_14199)"/>
<defs>
<linearGradient id="paint0_linear_79_14199" x1="31.2119" y1="-3.1553" x2="10.792" y2="43.7661" gradientUnits="userSpaceOnUse">
<stop stop-color="#01B5FF"/>
<stop offset="1" stop-color="#00C957"/>
</linearGradient>
<linearGradient id="paint1_linear_79_14199" x1="18.2057" y1="-8.81713" x2="-2.21411" y2="38.1063" gradientUnits="userSpaceOnUse">
<stop stop-color="#01B5FF"/>
<stop offset="1" stop-color="#00C957"/>
</linearGradient>
<linearGradient id="paint2_linear_79_14199" x1="50.48" y1="5.22869" x2="30.0602" y2="52.1522" gradientUnits="userSpaceOnUse">
<stop stop-color="#01B5FF"/>
<stop offset="1" stop-color="#00C957"/>
</linearGradient>
<linearGradient id="paint3_linear_79_14199" x1="30.2607" y1="-3.57101" x2="9.84088" y2="43.3524" gradientUnits="userSpaceOnUse">
<stop stop-color="#01B5FF"/>
<stop offset="1" stop-color="#00C957"/>
</linearGradient>
<linearGradient id="paint4_linear_79_14199" x1="34.5839" y1="-1.68841" x2="14.164" y2="45.233" gradientUnits="userSpaceOnUse">
<stop stop-color="#01B5FF"/>
<stop offset="1" stop-color="#00C957"/>
</linearGradient>
<linearGradient id="paint5_linear_79_14199" x1="49.4075" y1="24.0889" x2="178" y2="24.0889" gradientUnits="userSpaceOnUse">
<stop stop-color="#01B5FF"/>
<stop offset="1" stop-color="#00C957"/>
</linearGradient>
</defs>
</svg>
