<?xml version="1.0" encoding="utf-8"?>
<!-- Generator: Adobe Illustrator 19.2.1, SVG Export Plug-In . SVG Version: 6.00 Build 0)  -->
<svg version="1.1" id="layer" xmlns="http://www.w3.org/2000/svg" xmlns:xlink="http://www.w3.org/1999/xlink" x="0px" y="0px"
	 viewBox="0 0 652 652" style="enable-background:new 0 0 652 652;" xml:space="preserve">
<style type="text/css">
	.st0{fill-rule:evenodd;clip-rule:evenodd;fill:#F89522;}
	.st1{fill-rule:evenodd;clip-rule:evenodd;fill:#A4CD39;}
	.st2{fill-rule:evenodd;clip-rule:evenodd;fill:#3DC5F2;}
	.st3{fill:#A4CD39;}
	.st4{fill:#F89522;}
</style>
<path class="st0" d="M118.4,281.8c-5.5-4.8-11.1-6.2-18.4-6.2c-8.6,0-20,3.8-20,14.8c0,10.8,10.7,14,19.6,14.7
	c6.7,0.4,9.4,1.7,9.4,5c0,3.5-4.1,5.8-8.6,5.7c-5.3-0.1-13-2.9-16.3-6.6l-5.8,8.4c6.9,7.2,14.4,8.5,21.9,8.5
	c13.5,0,20.4-7.2,20.4-15.6c0-12.6-11.3-14.6-20.3-15.2c-6.1-0.4-8.8-2.1-8.8-5.2c0-3,3.1-4.7,8.6-4.7c4.5,0,8.4,1.1,11.7,4.2
	L118.4,281.8z"/>
<path class="st0" d="M133.7,264.8V277h-8.8v10.1h8.8v20.5c0,11.8,6.7,17.7,17,17.3c3.6-0.1,6.3-0.7,9.7-2l-3.3-10
	c-1.7,0.9-3.8,1.4-5.7,1.4c-3.7,0-6.1-2.2-6.1-6.7v-20.5h13.2V277h-13.1v-13.5L133.7,264.8z"/>
<path class="st0" d="M188.7,286.3c18.4,0,18.4,28.7,0,28.7c-7.8,0-14-5.4-14-14.4C174.6,291.5,180.9,286.3,188.7,286.3 M202.7,283.5
	c-2.7-4.7-8.7-7.7-15.1-7.7c-13.8-0.1-24.7,8.5-24.7,24.8c0,16.6,10.4,25.3,24.4,25.2c5.3-0.1,12.7-2.8,15.4-8.4l0.6,6.9h11.1v-47.4
	h-11.2L202.7,283.5z"/>
<path class="st0" d="M221.8,276.9v47.4h11.7v-25c0-8.7,5.7-12,11.8-12c3.8,0,6.1,1.1,8.5,3.1l5.3-10.2c-2.6-2.6-7.3-4.5-12.2-4.5
	c-4.8,0-9.7,0.9-13.4,6.7l-0.9-5.5H221.8z"/>
<path class="st0" d="M273.5,264.8V277h-8.8v10.1h8.8v20.5c0,11.8,6.7,17.7,17,17.3c3.6-0.1,6.3-0.7,9.7-2l-3.3-10
	c-1.7,0.9-3.8,1.4-5.7,1.4c-3.7,0-6.1-2.2-6.1-6.7v-20.5h13.2V277h-13.1v-13.5L273.5,264.8z"/>
<path class="st0" d="M307,276.9v24.9c0,14.7,8.3,23.3,19.6,23.3c6.6,0,11.1-2.3,16.1-7.1l0.8,6.3h10.5v-47.4h-11.6v24.2
	c0,7.3-4.9,13.3-12.1,13.3c-7.5,0-11.4-5.5-11.4-12.7v-24.8H307z"/>
<path class="st0" d="M372.5,344.1v-25.4c3.4,5.2,10.8,6.7,15.8,6.7c15.2,0,23.9-11,23.9-24.8c0-13.9-9.7-24.8-24.3-24.8
	c-5.4,0-11.7,2.3-15.4,7.6l-0.8-6.5h-11v67.2H372.5z M387,314.1c-8,0-13.5-6-13.5-13.5c0-7.4,5-13.5,13.5-13.5
	c8.5,0,13.5,6.1,13.5,13.5C400.4,308.1,394.9,314.1,387,314.1"/>
<path class="st0" d="M417.5,263.6c0,9.1,13.8,9.1,13.8,0C431.4,254.5,417.5,254.5,417.5,263.6 M430.3,324.3h-11.7v-47.6h11.7V324.3z
	"/>
<path class="st0" d="M484.4,324.3v-24.9c0-14.9-8.9-23.3-20.1-23.3c-6,0-10.8,2.4-15.6,7.1l-0.8-6.4h-10.5v47.5h11.6v-24.2
	c0-7.2,4.9-13.3,12.1-13.3c7.5,0,11.4,5.5,11.4,12.7v24.8H484.4z"/>
<path class="st0" d="M530.1,257.1v26.2c-2.8-4.9-10.6-7.6-15.6-7.6c-13.8,0-24.1,8.5-24.1,24.8c0,15.6,10.5,24.8,24.4,24.8
	c5.8,0,11.6-1.9,15.3-7.6l0.8,6.5h11v-67.2H530.1z M515.6,286.7c7.4,0,13.7,5.6,13.7,13.8c0,8.5-6.3,13.9-13.7,13.9
	c-7.5,0-13.5-5.7-13.5-13.9C502.2,292,508.1,286.7,515.6,286.7"/>
<path class="st1" d="M550.5,263.6c0,9.1,13.8,9.1,13.8,0C564.3,254.5,550.5,254.5,550.5,263.6"/>
<rect x="551.6" y="276.7" class="st2" width="11.7" height="47.6"/>
<path class="st0" d="M595.3,286.3c18.4,0,18.4,28.7,0,28.7c-7.8,0-14-5.4-14-14.4C581.3,291.5,587.6,286.3,595.3,286.3 M609.4,283.5
	c-2.7-4.7-8.7-7.7-15.1-7.7c-13.8-0.1-24.7,8.5-24.7,24.8c0,16.6,10.4,25.3,24.4,25.2c5.3-0.1,12.7-2.8,15.4-8.4l0.6,6.9H621v-47.4
	h-11.2L609.4,283.5z"/>
<rect x="507.4" y="331.6" class="st3" width="56" height="11.5"/>
<rect x="507.2" y="331.7" class="st3" width="11.4" height="56.1"/>
<rect x="462.8" y="376.3" class="st3" width="55.8" height="11.5"/>
<path class="st4" d="M48.9,269l-3,11.9h8.7l3-11.9h10.6L65.3,281H71v9.2h-8l-3.7,14.5h6.3v9.3h-8.4l-2.6,10.8H43.8l2.6-10.8h-8.8
	L35,324.8H24.4l2.6-10.8H21v-9.3h8.4l3.7-14.6h-6.6V281h8.8l2.9-11.9H48.9z M43.2,289.5l-4,15.8h10l4-15.8H43.2z"/>
</svg>
