<svg width="130" height="130" viewBox="0 0 130 130" fill="none" xmlns="http://www.w3.org/2000/svg">
<path d="M19.0986 42.1304C22.6669 45.6987 25.0998 49.7536 26.5596 54.1329C19.7474 53.9707 13.0973 51.3756 7.90706 46.1853C-2.63569 35.6426 -2.63569 18.4498 7.90706 7.90706C18.4498 -2.63569 35.6426 -2.63569 46.1853 7.90706C51.3756 13.0973 53.9707 19.7474 54.1329 26.5596C49.5915 24.9376 45.5366 22.3425 41.9682 18.9364L38.5621 15.5303C32.2365 9.20463 22.0181 9.20463 15.6925 15.5303C9.36682 21.8559 9.36682 32.0743 15.6925 38.3999L19.0986 42.1304Z" fill="url(#paint0_linear_79_14244)"/>
<path d="M87.8695 19.0986C84.3012 22.6669 80.2463 25.0998 75.867 26.5596C76.0292 19.7474 78.6243 13.0973 83.6524 7.90706C94.1952 -2.63569 111.388 -2.63569 121.931 7.90706C132.473 18.4498 132.473 35.6426 121.931 46.1853C116.74 51.3756 110.09 53.9707 103.278 54.1329C104.9 49.5915 107.495 45.5365 110.901 42.1304L114.307 38.7243C120.633 32.3987 120.633 22.1803 114.307 15.8547C107.982 9.52902 97.7635 9.52902 91.4378 15.8547L87.8695 19.0986Z" fill="url(#paint1_linear_79_14244)"/>
<path d="M110.901 87.8696C107.333 84.3013 104.9 80.2464 103.44 75.8671C110.253 76.0293 116.903 78.6244 122.093 83.8147C132.636 94.3574 132.636 111.55 122.093 122.093C111.55 132.636 94.3574 132.636 83.8146 122.093C78.6243 116.903 76.0292 110.253 75.867 103.44C80.4085 105.062 84.4634 107.657 88.0317 111.064L91.4378 114.47C97.7635 120.795 107.982 120.795 114.307 114.47C120.633 108.144 120.633 97.9257 114.307 91.6001L110.901 87.8696Z" fill="url(#paint2_linear_79_14244)"/>
<path d="M42.1304 110.901C45.6987 107.333 49.7536 104.9 54.1329 103.44C53.9707 110.253 51.3756 116.903 46.1853 122.093C35.6426 132.636 18.4498 132.636 7.90706 122.093C-2.63569 111.55 -2.63569 94.3574 7.90706 83.8147C13.0973 78.6244 19.7474 76.0293 26.5596 75.8671C24.9376 80.4086 22.3425 84.4635 18.9364 88.0318L15.5303 91.4379C9.20463 97.7635 9.20463 107.982 15.5303 114.308C21.8559 120.633 32.0743 120.633 38.3999 114.308L42.1304 110.901Z" fill="url(#paint3_linear_79_14244)"/>
<path d="M103.278 95.6552C86.4099 78.7868 86.4099 51.3756 103.278 34.5072L110.577 27.2084L102.792 19.5852L95.4928 26.884C78.6245 43.7524 51.2133 43.7524 34.3449 26.884L27.2083 19.5852L19.5851 27.2084L26.8839 34.5072C43.7523 51.3756 43.7523 78.7868 26.8839 95.6552L19.5851 102.792L27.2083 110.415L34.5071 103.116C51.3755 86.2478 78.7867 86.2478 95.655 103.116L102.954 110.415L110.577 102.792L103.278 95.6552Z" fill="url(#paint4_linear_79_14244)"/>
<defs>
<linearGradient id="paint0_linear_79_14244" x1="54.1329" y1="2.21868e-06" x2="-10.0772" y2="36.3149" gradientUnits="userSpaceOnUse">
<stop stop-color="#01B5FF"/>
<stop offset="1" stop-color="#00C957"/>
</linearGradient>
<linearGradient id="paint1_linear_79_14244" x1="129.838" y1="2.21868e-06" x2="65.727" y2="36.15" gradientUnits="userSpaceOnUse">
<stop stop-color="#01B5FF"/>
<stop offset="1" stop-color="#00C957"/>
</linearGradient>
<linearGradient id="paint2_linear_79_14244" x1="130" y1="75.8671" x2="65.7898" y2="112.182" gradientUnits="userSpaceOnUse">
<stop stop-color="#01B5FF"/>
<stop offset="1" stop-color="#00C957"/>
</linearGradient>
<linearGradient id="paint3_linear_79_14244" x1="54.1329" y1="75.8671" x2="-10.0772" y2="112.182" gradientUnits="userSpaceOnUse">
<stop stop-color="#01B5FF"/>
<stop offset="1" stop-color="#00C957"/>
</linearGradient>
<linearGradient id="paint4_linear_79_14244" x1="110.577" y1="19.5852" x2="2.73968" y2="80.6829" gradientUnits="userSpaceOnUse">
<stop stop-color="#01B5FF"/>
<stop offset="1" stop-color="#00C957"/>
</linearGradient>
</defs>
</svg>
