<svg width="162" height="130" viewBox="0 0 162 130" fill="none" xmlns="http://www.w3.org/2000/svg">
<path d="M17.875 0C8.125 0 0 8.125 0 17.875V111.312C0 121.875 8.125 130 17.875 130H143.813C153.563 130 161.688 121.875 161.688 112.125V17.875C162.5 8.125 154.375 0 144.625 0H17.875ZM73.9375 20.3125C84.5 20.3125 88.5625 25.1875 91.8125 28.4375C94.25 30.875 94.25 34.9375 91.8125 37.375C89.375 39.8125 85.3125 39.8125 82.875 37.375C80.4375 34.125 78.8125 32.5 73.9375 32.5C66.625 32.5 60.9375 39.8125 60.9375 48.75C60.9375 57.6875 66.625 65 73.125 65C78 65 79.625 63.375 82.875 60.9375C85.3125 58.5 89.375 58.5 91.8125 60.9375C94.25 63.375 94.25 67.4375 91.8125 69.875C88.5625 73.125 83.6875 78 73.9375 78C60.125 77.1875 48.75 64.1875 48.75 48.75C48.75 33.3125 60.125 20.3125 73.9375 20.3125ZM26 52C29.25 52 32.5 53.625 33.3125 56.875C34.125 60.9375 31.6875 65 28.4375 65.8125C24.375 66.625 20.3125 64.1875 19.5 60.9375C18.6875 56.875 21.125 52.8125 24.375 52C25.1875 52 26 52 26 52ZM130 56.0625C133.25 56.0625 136.5 56.875 138.938 58.5C146.25 63.375 148.688 73.9375 143 81.25C141.375 83.6875 138.938 85.3125 136.5 86.9375C137.313 91.8125 136.5 97.5 133.25 102.375C126.75 111.313 114.563 113.75 104.813 108.063C95.875 101.563 93.4375 89.375 99.125 79.625C102.375 74.75 107.25 72.3125 112.125 71.5C112.125 69.0625 112.938 65.8125 114.563 63.375C120.25 58.5 125.125 56.0625 130 56.0625ZM131.625 66.625C130 66.625 127.563 66.625 126.75 69.0625C125.125 71.5 125.938 74.75 128.375 76.375C130.813 78 134.063 77.1875 135.688 74.75C137.313 72.3125 136.5 69.0625 134.063 67.4375C132.438 67.4375 131.625 67.4375 131.625 66.625ZM30.875 72.3125C33.3125 72.3125 36.5625 73.9375 37.375 77.1875L43.0625 100.75C43.875 104 42.25 107.25 39 108.063C35.75 108.875 32.5 107.25 31.6875 104L25.1875 80.4375C24.375 77.1875 26.8125 73.125 30.0625 72.3125H30.875ZM117.813 82.0625C115.375 82.0625 112.938 83.6875 111.313 85.3125C108.875 89.375 109.688 95.0625 113.75 97.5C117.813 99.9375 122.688 99.125 125.125 95.0625C127.563 91 126.75 86.125 122.688 83.6875C121.063 82.875 119.438 82.0625 117.813 82.0625Z" fill="url(#paint0_linear_79_14257)"/>
<defs>
<linearGradient id="paint0_linear_79_14257" x1="161.744" y1="5.32814e-06" x2="-7.61822" y2="119.173" gradientUnits="userSpaceOnUse">
<stop stop-color="#01B5FF"/>
<stop offset="1" stop-color="#00C957"/>
</linearGradient>
</defs>
</svg>
