<svg width="130" height="130" viewBox="0 0 130 130" fill="none" xmlns="http://www.w3.org/2000/svg">
<path d="M18.2 0C7.8 0 0 7.8 0 18.2V40.95C0 43.55 1.95 45.5 4.55 45.5C7.15 45.5 9.75 43.55 9.75 40.95V18.2C9.75 13.65 13.65 10.4 17.55 10.4H40.3C43.55 9.75 45.5 7.8 45.5 5.2C45.5 1.95 43.55 0 40.95 0H18.2ZM89.7 0C86.45 0 84.5 1.95 84.5 4.55C84.5 7.15 86.45 9.75 89.05 9.75H111.8C116.35 9.75 119.6 13.65 119.6 17.55V40.3C119.6 42.9 121.55 45.5 124.15 45.5C128.05 45.5 130 43.55 130 40.95V18.2C130 7.8 122.2 0 112.45 0H89.7ZM65 26C61.1 26 58.5 28.6 58.5 32.5V97.5C58.5 101.4 61.1 104 65 104C68.9 104 71.5 101.4 71.5 97.5V32.5C71.5 28.6 68.9 26 65 26ZM42.25 42.25C38.35 42.25 35.75 45.5 35.75 48.75V81.25C35.75 85.15 38.35 87.75 42.25 87.75C46.15 87.75 48.75 85.15 48.75 81.25V48.75C48.75 44.85 46.15 42.25 42.25 42.25ZM87.75 42.25C83.85 42.25 81.25 45.5 81.25 48.75V81.25C81.25 85.15 83.85 87.75 87.75 87.75C91.65 87.75 94.25 85.15 94.25 81.25V48.75C94.25 44.85 91.65 42.25 87.75 42.25ZM19.5 55.25C15.6 55.25 13 58.5 13 61.75V68.25C13 72.15 15.6 74.75 19.5 74.75C23.4 74.75 26 72.15 26 68.25V61.75C26 57.85 23.4 55.25 19.5 55.25ZM110.5 55.25C106.6 55.25 104 58.5 104 61.75V68.25C104 72.15 106.6 74.75 110.5 74.75C114.4 74.75 117 72.15 117 68.25V61.75C117 57.85 114.4 55.25 110.5 55.25ZM4.55 84.5C1.95 84.5 0 86.45 0 89.7V112.45C0 122.2 7.8 130 18.2 130H40.95C43.55 130 45.5 128.05 45.5 125.45C45.5 122.85 43.55 120.25 40.95 120.25H18.2C13.65 120.25 10.4 116.35 10.4 112.45V89.7C9.75 86.45 7.8 84.5 4.55 84.5C4.55 84.5 5.2 84.5 4.55 84.5ZM124.8 84.5C122.2 84.5 120.25 86.45 120.25 89.7V112.45C120.25 117 116.35 120.25 112.45 120.25H89.7C87.1 120.25 84.5 122.2 84.5 124.8C84.5 127.4 86.45 130 89.05 130H111.8C121.55 130 130 122.2 130 111.8V89.05C130 86.45 128.05 84.5 124.8 84.5C124.8 84.5 125.45 84.5 124.8 84.5Z" fill="url(#paint0_linear_79_14253)"/>
<defs>
<linearGradient id="paint0_linear_79_14253" x1="130" y1="5.32814e-06" x2="-24.2004" y2="87.2099" gradientUnits="userSpaceOnUse">
<stop stop-color="#01B5FF"/>
<stop offset="1" stop-color="#00C957"/>
</linearGradient>
</defs>
</svg>
