<svg id="eyeQH5CLGTg1" xmlns="http://www.w3.org/2000/svg" xmlns:xlink="http://www.w3.org/1999/xlink" viewBox="0 0 284 292.24" shape-rendering="geometricPrecision" text-rendering="geometricPrecision">
<style><![CDATA[
#eyeQH5CLGTg2_tr {animation: eyeQH5CLGTg2_tr__tr 9000ms linear infinite alternate backwards}@keyframes eyeQH5CLGTg2_tr__tr { 0% {transform: translate(140.153177px,135.999999px) rotate(0deg);animation-timing-function: cubic-bezier(0.86,0,0.07,1)} 55.555556% {transform: translate(140.153177px,135.999999px) rotate(1800deg)} 100% {transform: translate(140.153177px,135.999999px) rotate(1800deg)}} #eyeQH5CLGTg3_to {animation: eyeQH5CLGTg3_to__to 9000ms linear infinite alternate backwards}@keyframes eyeQH5CLGTg3_to__to { 0% {offset-distance: 0%} 20% {offset-distance: 0%;animation-timing-function: cubic-bezier(0.23,1,0.32,1)} 88.888889% {offset-distance: 100%} 100% {offset-distance: 100%}} #eyeQH5CLGTg3_ts {animation: eyeQH5CLGTg3_ts__ts 9000ms linear infinite alternate backwards}@keyframes eyeQH5CLGTg3_ts__ts { 0% {transform: scale(1.6,1.6)} 44.444444% {transform: scale(1.6,1.6);animation-timing-function: cubic-bezier(0.23,1,0.32,1)} 78.888889% {transform: scale(1.33,1.33)} 100% {transform: scale(1,1)}} #eyeQH5CLGTg4_to {animation: eyeQH5CLGTg4_to__to 9000ms linear infinite alternate backwards}@keyframes eyeQH5CLGTg4_to__to { 0% {offset-distance: 0%} 20% {offset-distance: 0%;animation-timing-function: cubic-bezier(0.23,1,0.32,1)} 88.888889% {offset-distance: 100%} 100% {offset-distance: 100%}} #eyeQH5CLGTg4_ts {animation: eyeQH5CLGTg4_ts__ts 9000ms linear infinite alternate backwards}@keyframes eyeQH5CLGTg4_ts__ts { 0% {transform: scale(0.6,0.6)} 20% {transform: scale(0.6,0.6);animation-timing-function: cubic-bezier(0.19,1,0.22,1)} 78.888889% {transform: scale(1.33,1.33)} 100% {transform: scale(1,1)}} #eyeQH5CLGTg5_to {animation: eyeQH5CLGTg5_to__to 9000ms linear infinite alternate backwards}@keyframes eyeQH5CLGTg5_to__to { 0% {offset-distance: 0%} 20% {offset-distance: 0%;animation-timing-function: cubic-bezier(0.23,1,0.32,1)} 88.888889% {offset-distance: 100%} 100% {offset-distance: 100%}} #eyeQH5CLGTg5_ts {animation: eyeQH5CLGTg5_ts__ts 9000ms linear infinite alternate backwards}@keyframes eyeQH5CLGTg5_ts__ts { 0% {transform: scale(1.33,1.33)} 20% {transform: scale(1.33,1.33);animation-timing-function: cubic-bezier(0.23,1,0.32,1)} 77.777778% {transform: scale(0.6,0.6)} 100% {transform: scale(1,1)}} #eyeQH5CLGTg6_to {animation: eyeQH5CLGTg6_to__to 9000ms linear infinite alternate backwards}@keyframes eyeQH5CLGTg6_to__to { 0% {offset-distance: 0%} 20% {offset-distance: 0%;animation-timing-function: cubic-bezier(0.23,1,0.32,1)} 88.888889% {offset-distance: 100%} 100% {offset-distance: 100%}} #eyeQH5CLGTg6_ts {animation: eyeQH5CLGTg6_ts__ts 9000ms linear infinite alternate backwards}@keyframes eyeQH5CLGTg6_ts__ts { 0% {transform: scale(1.33,1.33)} 46.666667% {transform: scale(1.33,1.33)} 77.777778% {transform: scale(0.6,0.6)} 100% {transform: scale(1,1)}}
]]></style>
<defs><linearGradient id="eyeQH5CLGTg2-fill" x1="182.54" y1="-16.83" x2="65.93" y2="251.12" spreadMethod="pad" gradientUnits="userSpaceOnUse" gradientTransform="translate(0 0)"><stop id="eyeQH5CLGTg2-fill-0" offset="0%" stop-color="#01b5ff"/><stop id="eyeQH5CLGTg2-fill-1" offset="100%" stop-color="#00c957"/></linearGradient><linearGradient id="eyeQH5CLGTg3-fill" x1="108.03" y1="-248.23" x2="-8.58" y2="19.73" spreadMethod="pad" gradientUnits="userSpaceOnUse" gradientTransform="translate(0 0)"><stop id="eyeQH5CLGTg3-fill-0" offset="0%" stop-color="#01b5ff"/><stop id="eyeQH5CLGTg3-fill-1" offset="100%" stop-color="#00c957"/></linearGradient><linearGradient id="eyeQH5CLGTg4-fill" x1="84.53" y1="-194.24" x2="-32.08" y2="73.71" spreadMethod="pad" gradientUnits="userSpaceOnUse" gradientTransform="translate(0 0)"><stop id="eyeQH5CLGTg4-fill-0" offset="0%" stop-color="#01b5ff"/><stop id="eyeQH5CLGTg4-fill-1" offset="100%" stop-color="#00c957"/></linearGradient><linearGradient id="eyeQH5CLGTg5-fill" x1="12.65" y1="-29.07" x2="-103.96" y2="238.88" spreadMethod="pad" gradientUnits="userSpaceOnUse" gradientTransform="translate(0 0)"><stop id="eyeQH5CLGTg5-fill-0" offset="0%" stop-color="#01b5ff"/><stop id="eyeQH5CLGTg5-fill-1" offset="100%" stop-color="#00c957"/></linearGradient><linearGradient id="eyeQH5CLGTg6-fill" x1="84" y1="-193.02" x2="-32.61" y2="74.94" spreadMethod="pad" gradientUnits="userSpaceOnUse" gradientTransform="translate(0 0)"><stop id="eyeQH5CLGTg6-fill-0" offset="0%" stop-color="#01b5ff"/><stop id="eyeQH5CLGTg6-fill-1" offset="100%" stop-color="#00c957"/></linearGradient></defs><g id="eyeQH5CLGTg2_tr" transform="translate(140.153177,135.999999) rotate(0)"><path d="M169.52,246.46c0-16.64-10.54-29-25.66-30.79-9.09-1.08-17.32-3.34-23.15-11-8.28-10.94-6.76-25.13,3.62-33.33s27.09-6.45,35.12,3.69c1.12,1.41,2.08,2.94,3.12,4.42c9.35,13.31,26,17.14,39.64,9.09c13.540477-7.993593,18.457013-25.186092,11.19-39.13-4.12-8.09-5.41-15.94-1-24.23c4.58-8.59,11.49-13.71,21.39-14.36c14-.92,24-7.47,28.61-20.92c4.29-12.49-.79-26.51-11.72-33.81-10.649924-7.230116-24.802501-6.524119-34.68,1.73-10.64,8.72-14.3,22.71-8.67,35.11c3.15,6.94,5.08,13.74,3.08,21.4-3,11.41-11.69,19-22.54,19.17-11.31.19-20.42-7-23.68-18.47-2.14-7.55-.63-14.47,2.57-21.46c8.06-17.57-1.33-37-19.92-41.71-11.69-3-24.92,1.37-31,12.33-10.18,18.27-35.13,17-45.47.1-7.2-11.77-21-16-33.64-11.81C24.31,56.52,16.25,68,16.39,81.4c.176555,13.059751,8.939321,24.44076,21.52,27.95c12.585973,3.865606,26.175571-1.455846,32.79-12.84c10.42-17.69,33.39-16.11,43.69-1c10.57,15.49-3.32,34.05-17.2,36.84-2.3.46-4.63.79-7,1-15.353593,1.410201-27.066283,14.348737-26.946301,29.766489s12.032621,28.172433,27.406301,29.343511c22,1.76,32.12,19,23,39.15-5.26,11.58-4.25,22.61,3.81,32.44c7.36,9,17.31,12.4,28.61,10c12.22-2.61,19.81-10.53,22.8-22.69.345457-1.613652.562801-3.252089.65-4.9Zm-54.4-110.29c-.12-14.1,10.86-25.58,24.49-25.61c13.836883-.183483,25.203469,10.883157,25.39,24.72.22,14.4-10.59,25.66-24.78,25.81-6.646802.069611-13.044205-2.5277-17.761345-7.211013s-7.360427-11.061856-7.338655-17.708987Z" transform="translate(-140.153177,-135.999999)" fill="url(#eyeQH5CLGTg2-fill)"/></g><g id="eyeQH5CLGTg3_to" style="offset-path:path('M140.153175,139.310001C350.987256,-202.016096,251.742665,339.124053,69.099998,229.040001');offset-rotate:0deg"><g id="eyeQH5CLGTg3_ts" transform="scale(1.6,1.6)"><circle r="13.65" transform="translate(0.000002,-0.000001)" fill="url(#eyeQH5CLGTg3-fill)"/></g></g><g id="eyeQH5CLGTg4_to" style="offset-path:path('M140.153179,138.000006C-224.043866,251.088397,300.907397,-276.707221,208.600002,224.080006');offset-rotate:0deg"><g id="eyeQH5CLGTg4_ts" transform="scale(0.6,0.6)"><circle r="19.44" transform="translate(-0.000002,-0.000006)" fill="url(#eyeQH5CLGTg4-fill)"/></g></g><g id="eyeQH5CLGTg5_to" style="offset-path:path('M140.153181,135.999999C76.616063,415.316398,-171.440784,-41.090988,190.967594,21.369884');offset-rotate:0deg"><g id="eyeQH5CLGTg5_ts" transform="scale(1.33,1.33)"><circle r="19.44" transform="translate(-0.000004,0.000001)" fill="url(#eyeQH5CLGTg5-fill)"/></g></g><g id="eyeQH5CLGTg6_to" style="offset-path:path('M140.153173,136.000002C409.441233,89.433404,86.842979,422.080071,24.261224,144.857985');offset-rotate:0deg"><g id="eyeQH5CLGTg6_ts" transform="scale(1.33,1.33)"><circle r="19.44" transform="translate(0.000004,-0.000002)" fill="url(#eyeQH5CLGTg6-fill)"/></g></g></svg>
