<svg width="31" height="31" viewBox="0 0 31 31" fill="none" xmlns="http://www.w3.org/2000/svg">
<path d="M15.0995 0.831299L28.6745 8.9313C29.1245 9.2063 29.4745 9.5813 29.7245 10.0563C29.9745 10.5313 30.0995 11.0313 30.0995 11.5563V27.8313C30.0995 28.6563 29.806 29.3628 29.219 29.9508C28.631 30.5378 27.9245 30.8313 27.0995 30.8313H3.09946C2.27446 30.8313 1.56846 30.5378 0.981457 29.9508C0.393457 29.3628 0.0994568 28.6563 0.0994568 27.8313V11.5563C0.0994568 11.0313 0.224457 10.5313 0.474457 10.0563C0.724457 9.5813 1.07446 9.2063 1.52446 8.9313L15.0995 0.831299ZM15.0995 18.3063L26.7995 11.3313L15.0995 4.3563L3.39946 11.3313L15.0995 18.3063ZM15.0995 21.8313L3.09946 14.6313V27.8313H27.0995V14.6313L15.0995 21.8313Z" fill="url(#paint0_linear_79_14295)"/>
<defs>
<linearGradient id="paint0_linear_79_14295" x1="30.0995" y1="0.8313" x2="-5.48526" y2="20.9567" gradientUnits="userSpaceOnUse">
<stop stop-color="#01B5FF"/>
<stop offset="1" stop-color="#00C957"/>
</linearGradient>
</defs>
</svg>
