<svg width="31" height="31" viewBox="0 0 31 31" fill="none" xmlns="http://www.w3.org/2000/svg">
<path fill-rule="evenodd" clip-rule="evenodd" d="M0.0994568 15.915C0.0994568 23.3725 5.51571 29.5738 12.5995 30.8313V19.9975H8.84946V15.8313H12.5995V12.4975C12.5995 8.74755 15.0157 6.66505 18.4332 6.66505C19.5157 6.66505 20.6832 6.8313 21.7657 6.99755V10.8313H19.8495C18.0157 10.8313 17.5995 11.7475 17.5995 12.915V15.8313H21.5995L20.9332 19.9975H17.5995V30.8313C24.6832 29.5738 30.0995 23.3738 30.0995 15.915C30.0995 7.6188 23.3495 0.831299 15.0995 0.831299C6.84946 0.831299 0.0994568 7.6188 0.0994568 15.915Z" fill="url(#paint0_linear_79_14296)"/>
<defs>
<linearGradient id="paint0_linear_79_14296" x1="30.0995" y1="0.8313" x2="-5.48526" y2="20.9567" gradientUnits="userSpaceOnUse">
<stop stop-color="#01B5FF"/>
<stop offset="1" stop-color="#00C957"/>
</linearGradient>
</defs>
</svg>
