<svg width="31" height="31" viewBox="0 0 31 31" fill="none" xmlns="http://www.w3.org/2000/svg">
<path d="M27.9566 0.831299H2.23562C1.05705 0.831299 0.0994568 1.80228 0.0994568 2.99425V28.6684C0.0994568 29.8603 1.05705 30.8313 2.23562 30.8313H27.9566C29.1352 30.8313 30.0995 29.8603 30.0995 28.6684V2.99425C30.0995 1.80228 29.1352 0.831299 27.9566 0.831299ZM9.16642 26.5456H4.71999V12.2286H9.17312V26.5456H9.16642ZM6.94321 10.2733C5.51687 10.2733 4.36508 9.11478 4.36508 7.69514C4.36508 6.2755 5.51687 5.11701 6.94321 5.11701C8.36285 5.11701 9.52133 6.2755 9.52133 7.69514C9.52133 9.12148 8.36955 10.2733 6.94321 10.2733ZM25.8338 26.5456H21.3874V19.5813C21.3874 17.9206 21.3539 15.7844 19.0771 15.7844C16.7602 15.7844 16.4053 17.5925 16.4053 19.4608V26.5456H11.9588V12.2286H16.2245V14.184H16.2847C16.8807 13.059 18.3338 11.8737 20.4968 11.8737C24.9968 11.8737 25.8338 14.8402 25.8338 18.6974V26.5456Z" fill="url(#paint0_linear_79_14297)"/>
<defs>
<linearGradient id="paint0_linear_79_14297" x1="30.0995" y1="0.8313" x2="-5.48526" y2="20.9567" gradientUnits="userSpaceOnUse">
<stop stop-color="#01B5FF"/>
<stop offset="1" stop-color="#00C957"/>
</linearGradient>
</defs>
</svg>
