<svg width="386" height="105" viewBox="0 0 386 105" fill="none" xmlns="http://www.w3.org/2000/svg">
<path d="M62.7311 93.6091C62.7311 87.2681 58.7452 82.6029 52.993 81.9235C49.5507 81.5158 46.4255 80.6553 44.2061 77.7112C41.0809 73.5442 41.6244 68.1543 45.5649 65.0744C49.5054 61.9944 55.8465 62.6286 58.8811 66.4785C59.2888 67.022 59.6511 67.6108 60.0588 68.1543C63.5916 73.2272 69.9327 74.6766 75.0961 71.5966C80.2142 68.562 82.1166 62.0397 79.3537 56.7404C77.8137 53.6605 77.3155 50.6711 78.9913 47.5459C80.7125 44.2848 83.3395 42.3372 87.0988 42.1107C92.3981 41.7484 96.2028 39.2572 97.9692 34.1844C99.5545 29.3833 97.6974 24.1293 93.5305 21.3664C89.4994 18.6035 84.1095 18.8753 80.3501 22.0458C76.319 25.3522 74.9149 30.6515 77.0437 35.362C78.2213 37.989 78.9913 40.5707 78.2213 43.4695C77.089 47.8177 73.7826 50.6711 69.6609 50.7617C65.3581 50.8523 61.9158 48.0894 60.6929 43.7413C59.8776 40.8878 60.4664 38.2608 61.644 35.5885C64.3616 30.0174 62.0064 23.2687 56.4353 20.5511C55.6653 20.1888 54.8953 19.917 54.08 19.7358C49.6413 18.6035 44.6138 20.2341 42.3038 24.4011C38.4539 31.3309 28.9876 30.8327 25.0471 24.4463C22.3295 19.9623 17.0755 18.3771 12.2744 19.9623C6.34097 21.9552 3.17044 28.3869 5.20864 34.3203C6.38626 37.8079 9.19444 40.5254 12.7726 41.5672C17.5284 43.0619 22.6918 41.0237 25.2283 36.7208C29.1688 30.0174 37.9104 30.6062 41.8056 36.3585C45.7914 42.2466 40.5374 49.267 35.2833 50.3541C34.4228 50.5353 33.5169 50.6711 32.6563 50.7617C26.4512 51.3052 21.8765 56.7857 22.4654 62.9909C22.9636 68.4714 27.357 72.7742 32.8375 73.2272C41.2168 73.9066 45.0214 80.4288 41.5338 88.0833C39.5409 92.4768 39.9033 96.6891 42.9832 100.403C45.7914 103.8 49.5507 105.114 53.8536 104.208C58.4735 103.211 61.3723 100.222 62.5046 95.602C62.5952 94.832 62.6858 94.2432 62.7311 93.6091ZM42.0773 51.7129C42.032 46.3683 46.199 42.0201 51.3625 41.9748C56.6165 41.8842 60.9193 46.0965 61.0099 51.3505C61.1005 56.831 56.9788 61.0886 51.5889 61.1339C46.3802 61.1792 42.1226 57.0122 42.032 51.8035C42.0773 51.8035 42.0773 51.7582 42.0773 51.7129Z" fill="url(#paint0_linear_79_14279)"/>
<path d="M7.3828 62.4926C11.4602 62.4926 14.7656 59.1873 14.7656 55.1098C14.7656 51.0324 11.4602 47.7271 7.3828 47.7271C3.30539 47.7271 0 51.0324 0 55.1098C0 59.1873 3.30539 62.4926 7.3828 62.4926Z" fill="url(#paint1_linear_79_14279)"/>
<path d="M77.5421 92.4768C81.6195 92.4768 84.9249 89.1714 84.9249 85.094C84.9249 81.0166 81.6195 77.7112 77.5421 77.7112C73.4647 77.7112 70.1593 81.0166 70.1593 85.094C70.1593 89.1714 73.4647 92.4768 77.5421 92.4768Z" fill="url(#paint2_linear_79_14279)"/>
<path d="M24.5943 92.1596C27.446 92.1596 29.7577 89.8479 29.7577 86.9962C29.7577 84.1445 27.446 81.8328 24.5943 81.8328C21.7426 81.8328 19.4308 84.1445 19.4308 86.9962C19.4308 89.8479 21.7426 92.1596 24.5943 92.1596Z" fill="url(#paint3_linear_79_14279)"/>
<path d="M70.1593 15.2519C74.2367 15.2519 77.5421 11.9465 77.5421 7.86913C77.5421 3.79172 74.2367 0.486328 70.1593 0.486328C66.0819 0.486328 62.7765 3.79172 62.7765 7.86913C62.7765 11.9465 66.0819 15.2519 70.1593 15.2519Z" fill="url(#paint4_linear_79_14279)"/>
<path d="M334.536 34.9542V24.9897H294.542V70.6453L300.43 80.6551H334.536V70.6906H305.276V57.6915H331.365V47.9987H305.276V34.9542H334.536ZM274.93 24.9897V64.3949L247.89 25.035H237.337V80.7004H247.663V41.25L274.885 80.7004H285.302V25.035L274.93 24.9897ZM340.877 24.9897V34.9542H358.36V80.7004H369.004V34.9542H385.898V24.9897H340.877ZM228.731 59.005C228.006 57.3291 226.919 55.8344 225.606 54.5662C224.111 53.2527 222.48 52.211 220.669 51.3957C218.857 50.5351 217 49.7651 215.098 49.1763C213.467 48.6781 211.429 48.1346 208.983 47.5458C204.907 46.5493 201.917 45.5529 199.97 44.647C198.067 43.6958 197.116 42.4276 197.116 40.7065C197.116 38.7589 198.113 37.2189 200.106 36.0866C202.098 34.9542 204.725 34.4107 207.941 34.4107C214.237 34.4107 220.805 36.766 227.599 41.4312V30.3343C221.846 26.3938 215.007 24.265 208.032 24.3103C201.872 24.3103 196.754 25.7597 192.587 28.6132C188.465 31.4667 186.382 35.3166 186.382 40.163C186.427 46.2776 189.688 50.8069 196.074 53.8415C198.158 54.7474 202.415 56.1062 208.983 57.9179C212.471 58.8238 215.098 59.7749 216.773 60.8167C218.449 61.8584 219.31 63.2625 219.31 65.0743C219.31 67.0219 218.404 68.5618 216.592 69.6489C214.781 70.7359 212.244 71.2794 209.028 71.2794C201.917 71.2794 194.625 69.0148 187.061 64.4401V75.4917C190.685 77.2581 194.444 78.7528 198.339 79.9304C201.781 80.9269 205.36 81.3798 208.983 81.3798C215.098 81.3798 220.08 79.9304 224.066 77.077C228.006 74.2235 229.999 70.283 229.999 65.2101C230.044 63.0814 229.591 60.9526 228.731 59.005ZM149.649 25.035L134.068 67.4748L118.487 24.9897H107.118L128.769 80.6551H139.503L161.063 24.9897H149.649V25.035ZM168.038 80.7004H178.772V38.3512H168.038V80.7004ZM178.772 29.4285C178.772 32.4178 176.372 34.8184 173.382 34.8184C170.393 34.8184 167.993 32.4178 167.993 29.4285C167.993 26.4391 170.393 24.0386 173.382 24.0386C176.372 24.0386 178.772 26.4391 178.772 29.4285Z" fill="url(#paint5_linear_79_14279)"/>
<defs>
<linearGradient id="paint0_linear_79_14279" x1="67.6663" y1="-6.35437" x2="23.3967" y2="95.3697" gradientUnits="userSpaceOnUse">
<stop stop-color="#01B5FF"/>
<stop offset="1" stop-color="#00C957"/>
</linearGradient>
<linearGradient id="paint1_linear_79_14279" x1="39.4695" y1="-18.6291" x2="-4.80012" y2="83.0995" gradientUnits="userSpaceOnUse">
<stop stop-color="#01B5FF"/>
<stop offset="1" stop-color="#00C957"/>
</linearGradient>
<linearGradient id="paint2_linear_79_14279" x1="109.439" y1="11.8218" x2="65.1696" y2="113.55" gradientUnits="userSpaceOnUse">
<stop stop-color="#01B5FF"/>
<stop offset="1" stop-color="#00C957"/>
</linearGradient>
<linearGradient id="paint3_linear_79_14279" x1="65.6044" y1="-7.25575" x2="21.3348" y2="94.4728" gradientUnits="userSpaceOnUse">
<stop stop-color="#01B5FF"/>
<stop offset="1" stop-color="#00C957"/>
</linearGradient>
<linearGradient id="paint4_linear_79_14279" x1="74.9768" y1="-3.17409" x2="30.7072" y2="98.55" gradientUnits="userSpaceOnUse">
<stop stop-color="#01B5FF"/>
<stop offset="1" stop-color="#00C957"/>
</linearGradient>
<linearGradient id="paint5_linear_79_14279" x1="107.114" y1="52.71" x2="385.898" y2="52.71" gradientUnits="userSpaceOnUse">
<stop stop-color="#01B5FF"/>
<stop offset="1" stop-color="#00C957"/>
</linearGradient>
</defs>
</svg>
